  <svg
        width="615px"
        height="331px"
        viewBox="0 0 615 331"
        fill="none"
        xmlns="http://www.w3.org/2000/svg"
      >
        <path
          d="M614 210.5H615V210.086L614.707 209.793L614 210.5ZM575.5 172H574.5V172.414L574.793 172.707L575.5 172ZM575.5 149H576.5V148.586L576.207 148.293L575.5 149ZM517.5 91L518.207 90.2929L517.914 90H517.5V91ZM494 91L493.299 91.713L493.591 92H494V91ZM403 1.5L403.701 0.787042L403.061 0.157537L402.367 0.726244L403 1.5ZM317.5 71.5L317.928 72.404L318.038 72.3515L318.133 72.2738L317.5 71.5ZM216 119.5L215.302 120.216L215.8 120.701L216.428 120.404L216 119.5ZM139 44.5L139.698 43.7836L139.007 43.1107L138.309 43.7768L139 44.5ZM0.166667 172C0.166667 174.946 2.55448 177.333 5.5 177.333C8.44552 177.333 10.8333 174.946 10.8333 172C10.8333 169.054 8.44552 166.667 5.5 166.667C2.55448 166.667 0.166667 169.054 0.166667 172ZM615 331V210.5H613V331H615ZM614.707 209.793L576.207 171.293L574.793 172.707L613.293 211.207L614.707 209.793ZM576.5 172V149H574.5V172H576.5ZM576.207 148.293L518.207 90.2929L516.793 91.7071L574.793 149.707L576.207 148.293ZM517.5 90H494V92H517.5V90ZM494.701 90.287L403.701 0.787042L402.299 2.21296L493.299 91.713L494.701 90.287ZM402.367 0.726244L316.867 70.7262L318.133 72.2738L403.633 2.27376L402.367 0.726244ZM317.072 70.596L215.572 118.596L216.428 120.404L317.928 72.404L317.072 70.596ZM216.698 118.784L139.698 43.7836L138.302 45.2164L215.302 120.216L216.698 118.784ZM138.309 43.7768L4.80933 171.277L6.19067 172.723L139.691 45.2232L138.309 43.7768Z"
          fill="#F9B233"
        />
      </svg>