   <svg
        width="298"
        height="559"
        viewBox="0 0 298 559"
        fill="none"
        xmlns="http://www.w3.org/2000/svg"
      >
        <path
          d="M287.167 5.5C287.167 8.44552 289.554 10.8333 292.5 10.8333C295.446 10.8333 297.833 8.44552 297.833 5.5C297.833 2.55448 295.446 0.166667 292.5 0.166667C289.554 0.166667 287.167 2.55448 287.167 5.5ZM2 559V83.1619H0V559H2ZM24.9455 55.6219L292.681 6.48357L292.319 4.51643L24.5845 53.6548L24.9455 55.6219ZM2 83.1619C2 69.6474 11.653 58.0615 24.9455 55.6219L24.5845 53.6548C10.3425 56.2686 0 68.6821 0 83.1619H2Z"
          fill="#F9B233"
        />
      </svg>