<svg width="134" height="54" viewBox="0 0 134 54" fill="none" xmlns="http://www.w3.org/2000/svg">
<path d="M11.554 7.49805H26.9116C27.2577 7.49805 27.5383 7.77864 27.5383 8.1247V41.0129C27.5383 47.3916 22.3598 52.5669 15.9842 52.5669H11.554C5.17531 52.5669 0 47.3885 0 41.0129V19.0521C0 12.6734 5.17843 7.49805 11.554 7.49805Z" fill="#F9B233"/>
<path opacity="0.31" d="M22.7219 36.1401C22.0485 36.2055 21.5559 36.8072 21.5559 37.4838V37.6178C21.5559 41.7581 18.5099 45.306 14.4663 45.8141C14.404 45.8235 14.2419 45.8329 14.0392 45.8391C13.3315 45.8672 12.7734 46.4502 12.7734 47.1579C12.7734 47.9092 13.4032 48.5109 14.1546 48.4735C14.5006 48.4579 14.7906 48.4392 14.8779 48.4267C20.181 47.719 24.1435 43.0613 24.1435 37.6428V37.4277C24.1435 36.6701 23.4951 36.0652 22.7219 36.1401Z" fill="white"/>
<path d="M8.51074 3.72172V10.9453C8.51074 11.3662 8.85057 11.706 9.27145 11.706C9.69234 11.706 10.0322 11.3662 10.0322 10.9453V3.72172H19.5441V10.9484C19.5441 11.3693 19.884 11.7092 20.3048 11.7092C20.7257 11.7092 21.0655 11.3693 21.0655 10.9484V3.72172C21.0655 2.21901 19.8465 1 18.3438 1H11.2356C9.73287 1 8.51386 2.21901 8.51386 3.72172H8.51074Z" fill="#2DB674" stroke="#2DB674" stroke-width="0.75" stroke-miterlimit="10"/>
<path d="M131.971 20.5229C130.692 19.2447 129.13 18.5962 127.322 18.5899C125.564 18.5837 123.871 19.2821 122.621 20.5198C121.399 21.7325 120.747 23.1823 120.682 24.8284C120.682 24.872 120.675 26.0349 120.675 26.0349C120.675 26.886 120.382 27.6062 119.781 28.2391C119.191 28.8564 118.502 29.1588 117.673 29.1588C116.844 29.1588 116.155 28.8564 115.566 28.2391C114.964 27.6062 114.671 26.886 114.671 26.0349V18.8518H114.312C113.04 18.8518 112.011 19.8807 112.011 21.1527V26.0349C112.011 26.886 111.718 27.6062 111.117 28.2391C110.527 28.8564 109.838 29.1588 109.009 29.1588C108.18 29.1588 107.491 28.8564 106.902 28.2391C106.493 27.8089 100.803 18.8581 100.803 18.8581L108.591 13.4053L108.386 13.1122C107.653 12.074 106.219 11.8246 105.181 12.5573L98.7801 17.1122C97.9352 17.717 97.7169 18.8768 98.2812 19.7497L102.861 26.8455C103.036 27.1167 103.036 27.4628 102.861 27.734C102.749 27.9086 102.615 28.077 102.459 28.2391C101.873 28.8533 101.187 29.1557 100.364 29.1588H98.7458C97.9165 29.1588 97.2275 28.8564 96.6382 28.2391C96.0365 27.6062 95.7435 26.886 95.7435 26.0349C95.7435 26.0349 95.7497 25.2991 95.7497 25.1183C95.7497 23.3506 95.0981 21.8011 93.8168 20.5198C92.5354 19.2384 90.9641 18.5868 89.1465 18.5868C87.3289 18.5868 85.7576 19.2353 84.4669 20.5167C83.1762 21.798 82.5215 23.3413 82.5215 25.1059C82.5215 25.1214 82.5215 25.1339 82.5215 25.1495C82.5215 25.162 82.5215 25.1744 82.5215 25.1869C82.5215 26.9827 83.1762 28.5415 84.4669 29.8229C85.7576 31.1042 87.3258 31.7527 89.134 31.7527C89.583 31.7527 90.0288 31.7028 90.4684 31.6093C91.3912 31.4378 92.2392 31.0699 92.9968 30.5025C92.8659 31.4254 92.5323 32.1611 91.9867 32.7379C91.279 33.4892 90.3811 33.8571 89.2494 33.8571C88.5043 33.8571 87.7529 33.642 87.0203 33.2211C86.9517 33.1837 86.7334 33.0559 86.5651 32.9561C86.3967 32.8564 86.219 32.7722 86.032 32.7161C85.8075 32.6506 85.5737 32.6163 85.3398 32.6163C84.7787 32.6163 84.2456 32.8002 83.7997 33.1463L83.5347 33.3614L83.7311 33.6389C83.912 33.8945 84.9314 35.2102 87.2946 36.0987C87.9992 36.3107 88.6352 36.4167 89.2463 36.4167C91.1574 36.4167 92.7349 35.7807 93.9321 34.5274C94.8612 33.5547 95.4286 32.3108 95.6312 30.8143C96.5322 31.4098 97.5704 31.7153 98.7364 31.7153H100.358C101.941 31.7122 103.291 31.151 104.373 30.0505C104.479 29.9413 104.579 29.8291 104.676 29.7169C104.729 29.7792 104.785 29.8416 104.841 29.9039L104.856 29.9289V29.9226C104.897 29.9663 104.931 30.0099 104.972 30.0505C106.057 31.1541 107.413 31.7122 109 31.7153C110.59 31.7153 111.943 31.1541 113.028 30.0505C113.134 29.9413 113.23 29.8291 113.327 29.7169C113.424 29.8291 113.52 29.9445 113.626 30.0505C114.711 31.1541 116.067 31.7122 117.654 31.7153C119.244 31.7153 120.601 31.1541 121.682 30.0505C121.894 29.8353 122.078 29.6077 122.25 29.3739C122.35 29.4924 122.452 29.6078 122.565 29.7231C123.84 31.045 125.392 31.7153 127.176 31.7153H127.391C129.193 31.7153 130.742 31.0481 132.002 29.7325C133.252 28.4293 133.885 26.8736 133.885 25.1152C133.885 23.3569 133.233 21.798 131.952 20.5167L131.971 20.5229ZM93.0935 25.321C93.0592 26.3467 92.685 27.2227 91.943 27.9834C91.1699 28.7753 90.2657 29.1619 89.1808 29.1619C88.0959 29.1619 87.173 28.7753 86.3749 27.9772C85.5768 27.1791 85.1902 26.2687 85.1902 25.19C85.1902 24.8471 85.2338 24.526 85.3087 24.2173C85.4084 23.8151 85.5706 23.4379 85.8044 23.0825C85.9634 22.8362 86.1536 22.6024 86.378 22.3779C87.1761 21.5798 88.0927 21.1932 89.1839 21.1932C90.2751 21.1932 91.173 21.5798 91.9462 22.3717C92.6882 23.1324 93.0623 24.0084 93.0997 25.0435V25.3272L93.0935 25.321ZM130.088 27.9834C129.314 28.7753 128.41 29.1619 127.325 29.1619C126.24 29.1619 125.318 28.7753 124.519 27.9772C123.721 27.1791 123.332 26.2656 123.332 25.1838C123.332 24.102 123.721 23.176 124.523 22.3623C125.321 21.5517 126.231 21.1589 127.31 21.1589C128.388 21.1589 129.289 21.5486 130.072 22.3498C130.861 23.1573 131.244 24.0833 131.244 25.1744C131.244 26.2656 130.864 27.1885 130.084 27.9866L130.088 27.9834Z" fill="#B0B0B0"/>
<path d="M113.062 17.1475H114.571V16.792C114.571 15.52 113.539 14.4912 112.27 14.4912H110.761V14.8435C110.761 16.1155 111.793 17.1475 113.062 17.1475Z" fill="#B0B0B0"/>
<path d="M36.4698 17.1475H37.9787V16.792C37.9787 15.52 36.9468 14.4912 35.6779 14.4912H34.1689V14.8435C34.1689 16.1155 35.2009 17.1475 36.4698 17.1475Z" fill="#B0B0B0"/>
<path d="M98.7673 16.1302L102.58 13.4334L102.374 13.1435C101.639 12.1053 100.205 11.8622 99.1664 12.5979L95.3535 15.2947L95.5593 15.5815C96.295 16.6197 97.7323 16.866 98.7673 16.1302Z" fill="#B0B0B0"/>
<path d="M73.9446 17.1338H78.6148V16.7753C78.6148 15.5033 77.5829 14.4744 76.3109 14.4775H71.6406V14.833C71.6406 16.105 72.6726 17.1369 73.9446 17.1338Z" fill="#B0B0B0"/>
<path d="M77.7385 21.1332V26.0248C77.7385 26.8697 77.4486 27.5868 76.8562 28.2197C76.2171 28.8339 75.5063 29.1394 74.6832 29.1519C73.8633 29.1394 73.1493 28.837 72.5102 28.2197C71.9147 27.5899 71.6279 26.8697 71.6279 26.0248V23.6149V18.8262H71.2694C69.9974 18.8262 68.9654 19.8612 68.9654 21.1301V31.8486C68.9654 32.5594 68.741 33.1269 68.2827 33.582C67.9023 33.9593 67.469 34.1713 66.9608 34.2399H66.9265C66.2001 34.3334 65.6514 34.9538 65.6514 35.6865V36.8306H66.6023C67.9771 36.8306 69.1681 36.363 70.1408 35.437C71.1291 34.5018 71.6279 33.2952 71.6279 31.8517V31.1503C71.6279 31.1503 71.6279 31.0287 71.6279 30.879C71.6934 30.9258 71.7308 30.9539 71.7308 30.9539C71.79 30.9882 71.8524 31.0193 71.9116 31.0536C71.9241 31.0599 71.9397 31.0692 71.9522 31.0754C72.0956 31.1503 72.2421 31.222 72.3949 31.2874C72.4541 31.3124 72.5196 31.3342 72.5819 31.356C72.6536 31.381 72.7222 31.409 72.7939 31.4309C72.8968 31.4652 72.9997 31.4963 73.1057 31.5213C73.1057 31.5213 73.1119 31.5213 73.115 31.5213C73.4767 31.6148 73.8539 31.674 74.2468 31.699C74.3153 31.7052 74.387 31.7052 74.4587 31.7083C74.518 31.7083 74.5741 31.7177 74.6333 31.7177C74.6489 31.7177 74.6645 31.7177 74.6801 31.7177C74.6957 31.7177 74.7113 31.7177 74.7269 31.7177C74.7861 31.7177 74.8422 31.7115 74.9015 31.7083C74.9732 31.7083 75.0449 31.7021 75.1135 31.699C75.5063 31.674 75.8835 31.6179 76.2452 31.5213C76.2452 31.5213 76.2514 31.5213 76.2545 31.5213C76.3605 31.4932 76.4634 31.462 76.5663 31.4309C76.638 31.409 76.7097 31.381 76.7814 31.356C76.8438 31.3342 76.9061 31.3155 76.9653 31.2874C77.6325 30.985 78.4151 30.4083 78.7642 30.0529C79.8461 28.9523 80.3948 27.5961 80.3948 26.0248V18.8293H80.0362C78.7642 18.8293 77.7323 19.8643 77.7323 21.1332H77.7385Z" fill="#B0B0B0"/>
<path d="M44.2239 16.7346V26.0252C44.2239 26.8701 43.9339 27.5872 43.3416 28.2201C42.7025 28.8342 41.9916 29.1398 41.1686 29.1522C40.3486 29.1398 39.6347 28.8374 38.9956 28.2201C38.4001 27.5903 38.1133 26.8701 38.1133 26.0252V23.6153V18.8266H37.7547C36.4827 18.8266 35.4508 19.8585 35.4508 21.1305V31.849C35.4508 32.5598 35.2263 33.1273 34.768 33.5824C34.3877 33.9597 33.9543 34.1717 33.4461 34.2403H33.4118C32.6854 34.3307 32.1367 34.948 32.1367 35.6806V36.831H33.0876C34.4625 36.831 35.6534 36.3634 36.6262 35.4374C37.6145 34.5021 38.1133 33.2956 38.1133 31.8521V31.1507C38.1133 31.1507 38.1133 31.0291 38.1133 30.8794C38.1787 30.9262 38.2162 30.9542 38.2162 30.9542C38.2754 30.9885 38.3377 31.0197 38.397 31.054C38.4126 31.0603 38.425 31.0696 38.4406 31.0758C38.584 31.1507 38.7306 31.2224 38.8833 31.2878C38.9426 31.3128 39.008 31.3346 39.0704 31.3564C39.1421 31.3814 39.2107 31.4094 39.2824 31.4312C39.3853 31.4655 39.4882 31.4967 39.5942 31.5217C39.5942 31.5217 39.6004 31.5217 39.6035 31.5217C39.9652 31.6152 40.3424 31.6744 40.7352 31.6994C40.8038 31.7056 40.8755 31.7056 40.9472 31.7087C41.0065 31.7087 41.0626 31.7181 41.1218 31.7181C41.1374 31.7181 41.153 31.7181 41.1686 31.7181C41.1842 31.7181 41.1998 31.7181 41.2153 31.7181C41.2746 31.7181 41.3307 31.7118 41.3899 31.7087C41.4616 31.7087 41.5333 31.7025 41.6019 31.6994C41.9948 31.6744 42.372 31.6183 42.7336 31.5217C42.7336 31.5217 42.7399 31.5217 42.743 31.5217C42.849 31.4936 42.9519 31.4624 43.0548 31.4312C43.1265 31.4094 43.1982 31.3814 43.2699 31.3564C43.3572 31.3221 43.4944 31.2629 43.5816 31.2286C44.2208 30.9137 44.9285 30.3868 45.2558 30.0532C46.3377 28.9527 46.8864 27.5965 46.8864 26.0252V14.4307H46.5278C45.2558 14.4307 44.2239 15.4626 44.2239 16.7346Z" fill="#B0B0B0"/>
<path d="M58.9394 19.5231C57.9074 18.9089 56.7663 18.6221 55.5692 18.6221C53.7578 18.6221 52.1865 19.2737 50.8958 20.555C49.602 21.8395 48.9473 23.4014 48.9473 25.1972C48.9473 26.993 49.602 28.558 50.8958 29.8394C52.1865 31.1208 53.7609 31.7723 55.5692 31.7723C56.7165 31.7723 57.8357 31.4668 58.8988 30.862C59.0859 30.756 59.2667 30.6406 59.4413 30.5191C59.3104 31.4419 58.9737 32.1808 58.4312 32.7606C57.7204 33.5151 56.8256 33.8799 55.6876 33.8799C54.9394 33.8799 54.1912 33.6648 53.4554 33.2439C53.3432 33.1784 53.2247 33.1036 53.0937 33.0101L52.7976 32.8604C52.4765 32.717 52.1273 32.6422 51.775 32.6422C51.2138 32.6422 50.6807 32.8261 50.2349 33.1722L49.9667 33.3873L50.1632 33.6648C50.344 33.9204 51.3635 35.2361 53.7235 36.1277C53.7266 36.1277 53.7329 36.1308 53.736 36.134C54.4375 36.346 55.0735 36.4488 55.6845 36.4488C57.5988 36.4488 59.1763 35.8128 60.3766 34.5564C61.3649 33.5214 61.9448 32.1776 62.1131 30.5502C62.1194 30.5003 62.1474 28.0842 62.1474 26.0172C62.1474 23.1364 61.0282 20.767 58.9362 19.5231H58.9394ZM58.3719 28.028C57.5988 28.8231 56.6915 29.2065 55.6066 29.2065C54.5216 29.2065 53.5957 28.8168 52.7976 28.0187C51.9995 27.2206 51.6097 26.2946 51.6097 25.1972C51.6097 24.0998 51.9995 23.1739 52.7976 22.3757C53.5957 21.5776 54.5154 21.1879 55.6066 21.1879C56.6978 21.1879 57.5988 21.5745 58.3719 22.3664C59.1545 23.1676 59.5317 24.0936 59.5317 25.1972C59.5317 26.3009 59.1514 27.2268 58.3719 28.028Z" fill="#B0B0B0"/>
<path d="M66.8578 29.4432V14.4473H66.4993C65.2273 14.4473 64.1953 15.4823 64.1953 16.7512V31.7471H64.5538C65.8258 31.7471 66.8578 30.7121 66.8578 29.4432Z" fill="#B0B0B0"/>
<path d="M94.9733 42.4638V41.6719H94.3154C93.5703 41.6719 92.9031 41.8745 92.3232 42.2705C92.0302 41.9057 91.5812 41.6719 91.0793 41.6719H90.833V50.3795H91.0793C91.9585 50.3795 92.6755 49.6624 92.6755 48.7833V45.1231C92.6755 44.6305 92.8314 44.2377 93.1494 43.9228C93.4144 43.6609 93.7137 43.5144 94.066 43.4676H94.0878C94.5929 43.4022 94.9733 42.9719 94.9733 42.4669V42.4638Z" fill="#B0B0B0"/>
<path d="M44.8038 38.0928H44.4484C44.0307 38.0928 43.6409 38.2954 43.4009 38.6384L38.8959 45.6063L34.4532 38.707C34.1851 38.3235 33.7455 38.0928 33.2779 38.0928H32.9193C32.5047 38.0928 32.168 38.4295 32.168 38.8441V50.5198H32.4174C33.2903 50.5198 33.998 49.8089 33.998 48.9391V41.7186L38.8398 48.936L43.7189 41.7061V48.8892C43.7189 49.7902 44.4515 50.5198 45.3494 50.5198H45.5988V38.894C45.5988 38.4513 45.2403 38.0928 44.7976 38.0928H44.8038Z" fill="#B0B0B0"/>
<path d="M60.8161 41.4875C59.887 41.4875 59.0983 41.7182 58.4654 42.1703C58.3095 41.8741 57.9946 41.6714 57.6361 41.6714H56.707V50.5225H56.9564C57.8481 50.5225 58.5714 49.7992 58.5714 48.9075V45.4781C58.5714 44.892 58.7927 44.39 59.2479 43.9504C59.7093 43.5046 60.2206 43.2864 60.8161 43.2864C61.4116 43.2864 61.8855 43.4984 62.297 43.9317C62.7179 44.3744 62.9236 44.8826 62.9236 45.4781V48.9075C62.9236 49.7992 63.6469 50.5225 64.5386 50.5225H64.788V45.4781C64.788 44.3776 64.4045 43.4267 63.6438 42.6535C62.8831 41.8772 61.9291 41.4844 60.813 41.4844L60.8161 41.4875Z" fill="#B0B0B0"/>
<path d="M88.3572 48.7053C88.0829 48.6367 87.8459 48.4996 87.6277 48.2844C87.3066 47.9696 87.1476 47.5736 87.1476 47.0779V43.4552H89.4546V43.2058C89.4546 42.3578 88.7594 41.6688 87.9052 41.6688H87.1476V39.714C87.1476 38.8286 86.4243 38.1084 85.5326 38.1084H85.2832V47.0779C85.2832 48.0818 85.6355 48.9236 86.3245 49.5751C87.0073 50.2205 87.8397 50.5447 88.8062 50.5447H89.4702V50.0677C89.4702 49.4193 89.0119 48.8581 88.3541 48.7053H88.3572Z" fill="#B0B0B0"/>
<path d="M126.318 48.7114H126.293C125.937 48.6615 125.632 48.5119 125.367 48.2469C125.046 47.9289 124.887 47.5298 124.887 47.031V39.7419C124.887 38.8502 124.164 38.127 123.272 38.127H123.022V47.031C123.022 48.0411 123.375 48.886 124.064 49.5438C124.747 50.1923 125.579 50.5196 126.545 50.5196H127.209V49.7184C127.209 49.204 126.826 48.7706 126.315 48.7083L126.318 48.7114Z" fill="#B0B0B0"/>
<path d="M72.8757 42.4641C72.7229 42.3457 72.5577 42.2366 72.3862 42.1368C71.6567 41.719 70.8617 41.5039 70.0231 41.5039C68.7542 41.5039 67.6505 41.9591 66.7464 42.8601C65.8392 43.7611 65.3809 44.8554 65.3809 46.1149C65.3809 47.3744 65.8392 48.4687 66.7464 49.3697C67.6505 50.2676 68.7542 50.7259 70.0231 50.7259C70.8274 50.7259 71.6131 50.5108 72.3582 50.0868C72.4891 50.012 72.6169 49.9309 72.7385 49.8468C72.645 50.4952 72.4112 51.0128 72.0308 51.4181C71.532 51.9449 70.9053 52.2037 70.1072 52.2037C69.5835 52.2037 69.0566 52.0541 68.5422 51.7579C68.4642 51.7111 68.3801 51.6581 68.2896 51.5926L68.1119 51.4524L68.0808 51.4866C67.8563 51.3869 67.61 51.3339 67.3637 51.3339C66.9709 51.3339 66.5968 51.4617 66.2819 51.7049L66.0948 51.8545L66.232 52.0509C66.3598 52.2286 67.0737 53.1546 68.7323 53.7781C69.2249 53.9278 69.6739 53.9995 70.1041 53.9995C71.4447 53.9995 72.5515 53.5536 73.3932 52.6745C74.2257 51.8046 74.6465 50.6199 74.6465 49.1578V41.6723H74.0386C73.5086 41.6723 73.0565 41.9996 72.8695 42.4641H72.8757ZM71.9872 48.0977C71.4447 48.6558 70.8087 48.9239 70.048 48.9239C69.2873 48.9239 68.6388 48.6527 68.0776 48.0915C67.5165 47.5303 67.2452 46.885 67.2452 46.1149C67.2452 45.3449 67.5165 44.6964 68.0776 44.1383C68.6388 43.5771 69.281 43.3059 70.048 43.3059C70.8149 43.3059 71.4447 43.5771 71.9872 44.1321C72.5359 44.6933 72.8009 45.3417 72.8009 46.1149C72.8009 46.8881 72.5359 47.5366 71.9872 48.0977Z" fill="#B0B0B0"/>
<path d="M53.7545 42.4474C53.6142 42.3414 53.4614 42.2385 53.3024 42.1481C52.551 41.7116 51.7498 41.4902 50.9205 41.4902C49.6516 41.4902 48.548 41.9454 47.6439 42.8464C46.7366 43.7474 46.2783 44.8417 46.2783 46.1013C46.2783 47.3608 46.7366 48.4551 47.6439 49.3561C48.548 50.254 49.6516 50.7123 50.9205 50.7123C51.7498 50.7123 52.5386 50.4971 53.265 50.07C53.4365 49.9671 53.6017 49.8549 53.7576 49.7364C53.9446 50.201 54.3998 50.5314 54.9329 50.5314H55.5315V41.6804H54.9049C54.3874 41.6804 53.9415 42.0015 53.7576 42.4567L53.7545 42.4474ZM52.8846 48.081C52.3422 48.639 51.7062 48.9071 50.9455 48.9071C50.1847 48.9071 49.5363 48.6359 48.9751 48.0747C48.4139 47.5135 48.1427 46.8713 48.1427 46.1137C48.1427 45.3561 48.417 44.7045 48.9782 44.1309C49.5394 43.5604 50.1785 43.286 50.9361 43.286C51.6937 43.286 52.3266 43.5604 52.8753 44.1215C53.4271 44.689 53.6983 45.3374 53.6983 46.1044C53.6983 46.8713 53.4333 47.5198 52.8846 48.081Z" fill="#B0B0B0"/>
<path d="M122.016 43.0939C121.062 42.0401 119.902 41.5039 118.564 41.5039C117.227 41.5039 116.111 41.9591 115.203 42.8601C114.296 43.7611 113.838 44.8429 113.838 46.0806C113.838 47.3183 114.299 48.4095 115.207 49.3292C116.117 50.2552 117.208 50.7228 118.446 50.7228H118.595C119.911 50.7228 121.043 50.2115 121.963 49.2014L122.031 49.1266L122.04 49.1141C122.04 49.1141 122.047 49.1079 122.05 49.1016L122.246 48.874L122.069 48.7088C121.819 48.4781 121.482 48.3253 121.037 48.2443C120.734 48.1882 120.338 48.2848 119.849 48.5342C119.406 48.7337 118.92 48.9146 118.362 48.9146C118.034 48.9146 117.685 48.8148 117.317 48.6153L122.44 43.5584L122.012 43.0846L122.016 43.0939ZM116.014 47.3433C115.805 46.9473 115.705 46.514 115.705 46.0307C115.705 45.3168 115.977 44.6964 116.538 44.1352C117.099 43.574 117.716 43.3028 118.424 43.3028C118.91 43.3028 119.35 43.4088 119.755 43.627L116.014 47.3433Z" fill="#B0B0B0"/>
<path d="M79.8928 41.4883C78.6176 41.4883 77.514 41.9435 76.6067 42.8445C75.6995 43.7455 75.2412 44.8273 75.2412 46.065C75.2412 47.3027 75.6933 48.3877 76.5818 49.3105C77.4766 50.2395 78.5646 50.7072 79.8179 50.7072H79.9676C81.2302 50.7072 82.3214 50.2396 83.2068 49.3167C84.0829 48.4001 84.5287 47.3121 84.5287 46.0744C84.5287 44.8367 84.0735 43.7455 83.1725 42.8476C82.2715 41.9466 81.171 41.4914 79.8959 41.4914L79.8928 41.4883ZM81.8475 48.0821C81.3051 48.6402 80.6691 48.9083 79.9083 48.9083C79.1476 48.9083 78.4992 48.6371 77.938 48.0759C77.3768 47.5147 77.1056 46.8725 77.1056 46.1149C77.1056 45.3573 77.3799 44.7057 77.9411 44.1321C78.5023 43.5615 79.1414 43.2872 79.899 43.2872C80.6566 43.2872 81.2895 43.5615 81.8382 44.1227C82.39 44.6901 82.6612 45.3386 82.6612 46.1055C82.6612 46.8725 82.3962 47.5209 81.8475 48.0821Z" fill="#B0B0B0"/>
<path d="M111.335 42.8567L109.804 47.5051C109.664 47.9915 109.402 48.3344 109.009 48.5527C108.617 48.3344 108.355 47.9915 108.214 47.5051L106.684 42.8567C106.428 41.9775 105.527 41.4787 104.673 41.7406L104.433 41.8154L106.428 48.0538C106.718 49.0515 107.295 49.781 108.146 50.2237C108.426 50.3703 108.716 50.4732 109.009 50.5386C109.302 50.4732 109.589 50.3703 109.873 50.2237C110.724 49.781 111.304 49.0515 111.591 48.0538L113.586 41.8154L113.346 41.7406C112.492 41.4787 111.591 41.9775 111.335 42.8567Z" fill="#B0B0B0"/>
<path d="M102.006 42.4474C101.866 42.3414 101.713 42.2385 101.554 42.1481C100.803 41.7116 100.002 41.4902 99.1725 41.4902C97.9036 41.4902 96.7999 41.9454 95.8958 42.8464C94.9886 43.7474 94.5303 44.8417 94.5303 46.1013C94.5303 47.3608 94.9886 48.4551 95.8958 49.3561C96.7999 50.254 97.9036 50.7123 99.1725 50.7123C100.002 50.7123 100.791 50.4971 101.517 50.07C101.688 49.9671 101.854 49.8549 102.01 49.7364C102.197 50.201 102.652 50.5314 103.185 50.5314H103.783V41.6804H103.157C102.639 41.6804 102.193 42.0015 102.01 42.4567L102.006 42.4474ZM101.133 48.081C100.591 48.639 99.955 48.9071 99.1943 48.9071C98.4336 48.9071 97.7851 48.6359 97.2239 48.0747C96.6628 47.5135 96.3915 46.8713 96.3915 46.1137C96.3915 45.3561 96.6659 44.7045 97.2271 44.1309C97.7882 43.5604 98.4274 43.286 99.1849 43.286C99.9425 43.286 100.575 43.5604 101.124 44.1215C101.676 44.689 101.947 45.3374 101.947 46.1044C101.947 46.8713 101.682 47.5198 101.133 48.081Z" fill="#B0B0B0"/>
<path d="M133.37 46.1241C133.071 45.7126 132.7 45.3665 132.273 45.0984C131.908 44.8708 131.54 44.6526 131.181 44.453C130.879 44.2847 130.62 44.1007 130.408 43.9043C130.243 43.7515 130.243 43.6549 130.243 43.6237C130.243 43.552 130.259 43.499 130.343 43.4304C130.446 43.3431 130.549 43.3057 130.679 43.3057C130.726 43.3057 130.776 43.312 130.826 43.3213C130.845 43.3244 130.904 43.34 130.951 43.3525C130.997 43.365 131.038 43.3743 131.047 43.3743C131.49 43.4585 131.948 43.3525 132.307 43.0875C132.31 43.0875 132.7 42.7851 132.684 42.5762L132.678 42.4951L132.522 42.3081C132.036 41.7781 131.437 41.5068 130.745 41.5068C130.053 41.5068 129.523 41.7001 129.083 42.0774C128.612 42.4827 128.376 42.9877 128.376 43.5832C128.376 44.1381 128.556 44.6339 128.909 45.0485C129.205 45.4008 129.566 45.7001 129.981 45.9433C130.33 46.149 130.683 46.3579 131.038 46.5668C131.328 46.7383 131.577 46.9472 131.777 47.1903C131.93 47.3712 131.998 47.5894 131.998 47.8762C131.998 48.1256 131.88 48.347 131.624 48.5777C131.353 48.8209 131.022 48.9425 130.611 48.9425C130.153 48.9425 129.704 48.6743 129.283 48.1443C128.768 47.4959 128.478 47.2184 128.41 47.1654L128.22 47.0189L128.067 47.2028C127.811 47.5083 127.671 47.8731 127.662 48.2597C127.64 49.1825 128.394 49.8653 128.46 49.9245C128.647 50.096 128.874 50.2706 129.124 50.3953C129.601 50.6385 130.112 50.7382 130.661 50.7382C131.534 50.7382 132.291 50.4452 132.912 49.8653C133.545 49.2729 133.866 48.5465 133.866 47.6985C133.866 47.1124 133.697 46.5824 133.364 46.121L133.37 46.1241Z" fill="#B0B0B0"/>
</svg>
